# xmcd
#
# Track frame offsets: 
#        150
#        24592
#        53675
#        82505
#        103769
#        122185
#        145267
#        170185
#        195429
#        224552
#
# Disc length: 3439 seconds
#
# Revision: 1
# Processed by: cddbd v1.5.2PL0 Copyright (c) Steve Scherf et al.
# Submitted via: ExactAudioCopyFreeDBPlugin 1.0
#
DISCID=890d6d0a
DTITLE=diverse - Jazz Guitar CD 3
DYEAR=2007
DGENRE=Jazz
TTITLE0=Wes Montgomery - The Girl Next Door
TTITLE1=Wes Montgomery - Four On Six
TTITLE2=Wes Montgomery - Twisted Blues
TTITLE3=Barney Kessel - On a Clear Day
TTITLE4=Barney Kessel - The Look Of Love
TTITLE5=Barney Kessel - How Hight The Moon
TTITLE6=George Benson - Blue Bossa
TTITLE7=George Benson - Love Walked In
TTITLE8=George Benson - Li'l Darlin'
TTITLE9=Pat Metheny - Move To The Groove
EXTD=YEAR: 2007
EXTT0=
EXTT1=
EXTT2=
EXTT3=
EXTT4=
EXTT5=
EXTT6=
EXTT7=
EXTT8=
EXTT9=
PLAYORDER=
